<svg xmlns="http://www.w3.org/2000/svg" viewBox="0 0 1024 1024"><path fill="#11232f" d="M668.326 110.634c-5.193 1.158-9.773 14.65-11.241 33.118C655.3 166.203 650.311 173 635.615 173c-21.423 0-28.946 7.091-23.615 22.26 3.453 9.824 1.079 18.341-6.866 24.634-5.366 4.25-5.587 8.276-.884 16.103 7.121 11.85 20.577 18.585 36.608 18.323 9.919-.162 11.224-.992 8.212-5.222-9.632-13.526-16.093-42.926-11.73-53.369 3.279-7.848 17.964-20.672 19.422-16.961.406 1.034 1.768 3.197 3.026 4.806 1.259 1.609 4.32 5.72 6.804 9.134 5.592 7.69 10.584 11.709 18.899 15.217l6.44 2.717-6.001 1.798c-6.326 1.895-10.96 4.856-9.652 6.168 1.024 1.028 11.376-1.099 20.535-4.218 5.012-1.706 8.945-2.396 12.5-2.19 5.134.297 5.19.336 5.508 3.8.725 7.9 5.23 3.535 9.05-8.768 2.823-9.094 6.088-13.341 8.632-11.23 4.279 3.552-.666 19.182-7.417 23.444-3.412 2.153-4.085 3.113-4.081 5.817.002 1.78-.766 6.956-1.709 11.501-1.69 8.157-1.686 8.291.347 10.323l2.058 2.059 8.701-2.066c27.376-6.502 40.098-20.312 40.098-43.528 0-15.9-5.039-25.334-18.778-35.156-9.504-6.794-12.48-10.353-17.833-21.327-8.88-18.207-23.403-30.441-40.954-34.5-6.953-1.608-21.089-2.719-24.609-1.935M384 139.536c-7.585 2.836-9.343 2.96-14.791 1.038-2.223-.785-6.117-1.738-8.652-2.118l-4.61-.691 5.526 5.752c3.04 3.163 5.527 6.141 5.527 6.617 0 1.187-1.741 1.093-2.5-.134-.901-1.458-2.733-1.227-1.985.25.348.688.037.53-.691-.349-1.483-1.791-1.713-1.873-5.574-1.971-2.422-.062-2.512-.17-.75-.907 1.482-.62.918-.807-2.179-.72-2.299.064-3.989.425-3.756.802.233.377-.272.952-1.123 1.279-1.009.387-1.297.191-.83-.565.485-.785.153-.943-1.03-.489-.96.369-2.046.677-2.414.685-.367.009.007.452.832.985 1.282.828 1.246.972-.25.985-.962.008-1.75.492-1.75 1.074 0 .582.468.77 1.04.416.662-.409.826.211.451 1.707-.876 3.489 3.561 7.148 13.063 10.772 6.253 2.384 9.05 4.125 12.5 7.78 2.445 2.59 3.546 3.972 2.446 3.072-3.113-2.548-8.709-3.125-17.797-1.835-5.613.797-10.023.88-13.471.253l-5.127-.932 2.93 4.258c1.611 2.342 6.456 6.729 10.765 9.749 13.088 9.171 16.926 14.203 18.66 24.463 1.219 7.214-.574 6.759-3.599-.912-3.701-9.388-7.196-12.54-18.005-16.237-12.787-4.373-16.419-9.164-19.091-25.182l-1.315-7.883-1.817 5.476c-.999 3.012-2.062 8.289-2.361 11.726-.516 5.905-1.369 7.521-2.772 5.25-1.213-1.962-4.066-.94-8.377 3-2.407 2.2-4.787 4-5.289 4-.503 0-2.626-1.8-4.719-4-6.362-6.687-10.832-4.85-9.621 3.954.521 3.792 1.328 5.478 3.312 6.923 2.305 1.679 2.698 2.827 3.241 9.463.763 9.329 6.953 22.389 6.953 14.671 0-1.192 4.406-6.44 10.988-13.088l10.988-11.099 4.192 3.588c3.802 3.254 4.757 3.59 10.262 3.61 11.447.041 15.83 3.366 21.07 15.978 3.923 9.444 5.417 11.386 11 14.303 13.529 7.068 39.881-3.824 44.036-18.202.663-2.294.529-2.373-3.039-1.794l-3.733.606 5.118-4.986c6.163-6.003 6.247-6.56 1.118-7.427-4.73-.799-4.635-.476-1.502-5.093 5.115-7.536 5.248-14.898.421-23.214-2.305-3.973-2.541-5.954-.508-4.267 2.196 1.823 2.781-.277 1.497-5.376-1.17-4.646-7.759-12.55-10.463-12.55-.938 0-1.162-.968-.776-3.347.469-2.889.004-3.913-3.408-7.5-4.785-5.03-8.305-5.342-18.261-1.617M347.5 154c.34.55.816 1 1.059 1s.441-.45.441-1-.477-1-1.059-1-.781.45-.441 1m312.064 31.293c.376.986.935 1.541 1.243 1.233.308-.307.001-1.114-.683-1.793-.988-.98-1.102-.865-.56.56M638 209.927c0 2.967 14.244 9.073 21.164 9.073 4.788 0 2.46-1.604-8.605-5.93-10.878-4.254-12.559-4.674-12.559-3.143m64.212 10.105c-2.826 4.525-12.886 7.922-14.712 4.968-.91-1.472-3.5-1.217-3.5.345 0 4.458 10.2 6.536 15.39 3.135 2.648-1.735 6.61-7.338 6.61-9.348 0-1.859-2.425-1.283-3.788.9m-384.196 2.124c.062 5.018 4.576 9.383 14.99 14.494 5.772 2.832 10.656 4.996 10.853 4.807 1.086-1.034-4.747-6.849-10.138-10.106-3.422-2.067-8.358-5.284-10.971-7.149-2.94-2.098-4.744-2.878-4.734-2.046m326.937 2.757c3.516 6.569 14.308 8.061 16.525 2.284 1.062-2.769-1.24-3.769-4.392-1.907-3.752 2.217-5.849 2.152-9.876-.304-3.195-1.947-3.261-1.949-2.257-.073m-326.586 12.171c1.473 7.365 5.899 10.553 13.143 9.467 6.266-.94 6.845-3.551.787-3.551-4.194 0-5.054-.433-8.952-4.5-5.099-5.322-5.799-5.521-4.978-1.416m-35.112 7.245a595.122 595.122 0 0 1-11.124 6.516c-3.301 1.878-7.798 5.653-10.255 8.607l-4.376 5.261-4-1.42c-5.177-1.838-19.866-2.73-25-1.519l-4 .944 2.898 1.172c6.123 2.478 15.167 10.714 22.849 20.808.501.659-2.612-.818-6.918-3.281-11.555-6.609-22.514-9.698-32.868-9.265-10.461.439-10.604.627-5.742 7.585 6.275 8.981 14.583 27.294 13.07 28.807-.228.229-3.597-3.963-7.486-9.314-9.86-13.568-21.303-24.522-21.303-20.393 0 3.408-5.535 29.62-7.96 37.696-1.646 5.482-3.495 13.342-4.109 17.467-2.291 15.406-2.264 15.356-15.123 28.7-13.062 13.554-12.764 12.909-9.418 20.429 3.57 8.026 4.177 11.317 1.911 10.377-9.256-3.837-22.73-4.959-22.124-1.841.178.916 4.299 4.343 9.158 7.615 5.363 3.612 8.474 6.311 7.917 6.868-.505.505-8.506 1.3-17.779 1.766-15.705.79-16.985 1.001-18.667 3.078-2.214 2.734-2.35 8.77-.307 13.66 1.344 3.216 1.333 4.067-.108 8.218-4.183 12.051-2.529 28.831 3.386 34.346 4.56 4.253 6.087 4.596 29.797 6.702 12.609 1.12 27.997 2.551 34.194 3.18 6.198.63 15.648 1.311 21 1.513 5.353.203 16.257.794 24.232 1.315 7.975.52 18.1.919 22.5.885l8-.061-5.5-.832c-12.5-1.892-36.896-3.94-58.5-4.911-38.397-1.726-50.05-3.619-58.777-9.549-12.935-8.79-8.593-29.049 8.007-37.36 10.554-5.284 22.37-4.827 39.446 1.527 9.322 3.469 9.857 3.11 5.351-3.585-4.7-6.984-4.594-7.329 4.329-14.047 2.409-1.814 3.669-3.841 4.555-7.334.912-3.589 2.022-5.33 4.329-6.792l3.104-1.965.552 5.299c.304 2.915.81 11.149 1.125 18.299.915 20.769-.707 18.891 19.404 22.468 18.716 3.329 20.565 3.019 32.575-5.451 11.864-8.367 15.074-8.915 25.5-4.346 2.475 1.084 8.517 3.053 13.427 4.375 6.521 1.757 9.756 3.208 12.005 5.388 3.069 2.974 3.103 2.981 10.074 2 10.837-1.525 29.934-4.778 41.292-7.034 18.052-3.585 33.12 2.761 41.712 17.566 7.657 13.194 3.475 16.431-21.51 16.65-7.975.071-20.8.48-28.5.911-9.33.522-2.492.636 20.5.342 51.317-.658 56.816-1.645 59.499-10.679 1.012-3.408 2.825-6.35 5.493-8.913 2.19-2.105 4.282-5.02 4.648-6.478.597-2.381.286-3.795-2.079-9.432-.484-1.154.803-3.099 4.377-6.617 6.648-6.544 7.196-12.169 1.659-17.031-1.872-1.643-3.954-3.171-4.626-3.395-.887-.296-.661-1.511.82-4.414 5.825-11.418 8.498-27.506 5.827-35.076-1.183-3.353-1.175-4.922.059-10.876 3.417-16.497 2.757-52.662-1.243-68.071-3.71-14.294-11.713-25.09-17.859-24.093-8.003 1.299-17.541 8.164-23.18 16.686-1.478 2.233-2.829 3.92-3.001 3.747-.742-.742 2.859-13.44 5.047-17.797l2.393-4.764-8.605-.717c-4.734-.394-13.332-.476-19.109-.181-10.159.519-10.566.629-12.459 3.384-4.065 5.916-17.687 18.033-25.641 22.808-8.973 5.388-18.834 7.347-22.777 4.526-.958-.686-.227.203 1.625 1.975 3.499 3.347 6.968 3.718 14.132 1.512l2.5-.769-2.483 2.71c-11.132 12.152-33.887 12.955-46.276 1.632-15.77-14.413-17.893-37.644-4.938-54.046 4.935-6.247 5.494-7.011 5.069-6.921-.204.044-2.732 1.507-5.617 3.25m74.745-.483c-5.158.713-5.663 2.596-.908 3.389 16.248 2.707 23.908 1.64 23.908-3.331 0-.875-16.787-.918-23-.058m-7.733 5.38c-2.169 2.717-4.089 7.621-6.308 16.114l-2.309 8.84-3.01-.602c-1.655-.331-3.826-1.341-4.824-2.245-1.551-1.403-1.816-1.424-1.816-.143 0 2.485 3.486 4.852 7.361 4.997 4.594.173 4.266.606 6.642-8.768 1.104-4.355 2.964-10.298 4.133-13.205 2.084-5.184 2.146-7.511.131-4.988M680 249.5c-1.375.786-3.85 1.459-5.5 1.496-2.766.062-2.858.175-1.181 1.446 2.666 2.021 10.681-.653 10.681-3.564 0-1.216-1.078-1.048-4 .622m-325.513 1.521c-1.031 1.667 5.086 6.968 8.186 7.094 5.011.204 6.788-.235 8.771-2.166 2.583-2.515 1.725-3.121-2.559-1.806-3.062.94-4.174.744-8.647-1.522-3.115-1.579-5.375-2.208-5.751-1.6m356.418 4.229c-.736 1.788-4.593 6.512-8.573 10.5-7.351 7.366-7.77 8.53-2.032 5.636 6.439-3.248 11.366-9.516 13.077-16.636.916-3.812-.844-3.455-2.472.5m-36.163 3.32c-.798 4.176 5.339 5.033 11.745 1.641l3.013-1.595-4.5-.766a559.737 559.737 0 0 1-7.142-1.261c-2.199-.413-2.722-.08-3.116 1.981m92.947 6.18c-.235.413-2.31 6.6-4.611 13.75-23.899 74.285-37.74 100.879-57.724 110.916-9.275 4.659-9.942 4.213-10.717-7.166-1.278-18.763-3.322-22.079-2.825-4.581l.429 15.118-4.635-.866c-19.131-3.574-30.736-25.295-49.109-91.921-5.826-21.124-8.516-30-9.094-30-1.883 0-11.716 4.993-15.903 8.074-11.119 8.185-16.234 17.196-28.052 49.426-5.338 14.559-9.163 21.816-17.178 32.591-9.686 13.025-16.522 28.635-25.315 57.813-1.725 5.722-3.367 11.006-3.65 11.742-.41 1.071.201 1.04 3.059-.154 5.499-2.297 14.8-1.887 22.825 1.008 7.854 2.833 10.811 3.132 10.811 1.092 0-.775 7.169-15.962 15.932-33.75 8.763-17.788 17.289-35.717 18.948-39.842 2.001-4.974 3.039-6.658 3.083-5 .213 7.976 9.62 37.509 18.394 57.75 3.929 9.063 3.828 9.419-1.625 5.714-4.701-3.195-4.708-3.057-.699 13.506 4.109 16.975 2.576 16.153 16.944 9.081 15.145-7.453 17.348-7.615 28.521-2.104 4.401 2.171 10.112 4.834 12.691 5.917 5.146 2.162 7.412 6.86 6.613 13.709l-.375 3.206 5.505-4.906c10.383-9.254 10.14-9.203 44.152-9.294 16.361-.043 30.002-.333 30.313-.644 1.058-1.056 7.477-35.355 10.094-53.935 4.417-31.352 7.322-47 8.728-47 .487 0 4.096 6.637 8.019 14.75 3.924 8.113 12.071 23.909 18.105 35.103 12.653 23.474 13.815 27.629 9.361 33.468l-2.548 3.341 4.872 1.248c12.389 3.176 21.63 18.507 17.923 29.737-2.627 7.961-4.186 8.324-36.444 8.476-14.304.067-30.732.477-36.507.911-6.019.453 8.49.585 34 .311 24.475-.263 47.779-.792 51.787-1.175 4.516-.431 7.73-.31 8.452.317.83.722.823.558-.025-.574-.97-1.296-.731-2.018 1.3-3.926 11.473-10.778 2.62-41.411-40.03-138.517-18.365-41.812-24.628-51.138-38.86-57.866-9.054-4.281-23.64-7.12-24.935-4.854M322 276.447c0 1.16 11.148 7.671 12.639 7.382 2.226-.432 2.998-2.829.911-2.829-.889 0-3.837-1.125-6.55-2.5-4.675-2.369-7-3.051-7-2.053m-77.396 122.438c-1.618 1.788-1.577 2.033.786 4.75l2.492 2.865 2.256-2.225 2.257-2.226-2.372-2.524c-2.841-3.024-3.221-3.069-5.419-.64m390.007 2.687c-.874 2.278 1.132 5.428 3.456 5.428 2.523 0 3.417-2.228 1.975-4.922-1.31-2.448-4.57-2.752-5.431-.506M277 443.942c1.375 1.163 8.098 5.814 14.939 10.336 6.842 4.522 14.042 9.78 16 11.683 1.959 1.904 4.461 3.941 5.561 4.528 1.1.586 2.814 2.789 3.809 4.896.994 2.107 2.071 3.568 2.392 3.247.321-.321.042-1.236-.619-2.034-.662-.797-1.078-2.046-.924-2.774.471-2.225-3.326-6.943-8.223-10.217-2.556-1.709-8.137-5.517-12.402-8.462-4.265-2.946-9.842-6.27-12.394-7.387-2.551-1.117-5.989-2.908-7.639-3.98l-3-1.949 2.5 2.113m386-1.022c0 .516 3.323 3.009 7.385 5.541 6.8 4.238 10.317 7.592 20.995 20.022 2.134 2.485 4.464 4.517 5.177 4.517.714 0 2.429 1.444 3.81 3.21l2.512 3.21 3.311-1.658 3.31-1.658-3.023.527c-2.235.391-3.508-.008-4.882-1.526-2.606-2.88-.872-6.663 6.846-14.932 3.332-3.571 5.131-6 3.996-5.398-2.455 1.303-9.736 9.046-11.36 12.081-1.53 2.859-2.136 2.697-5.077-1.361-1.375-1.897-3.013-3.268-3.64-3.046-1.21.428-3.812-1.68-6.953-5.635-3.188-4.013-22.407-15.93-22.407-13.894m-140.996 14.274c-.006 8.355 2.031 10.2 13.496 12.222 12.603 2.224 12.942 2.057 4.627-2.273-8.887-4.627-13.637-8.292-16.202-12.499l-1.918-3.144-.003 5.694m201.736 3.346c-1.507 1.398-2.74 2.832-2.74 3.188 0 .355 1.35-.647 3-2.228 2.757-2.641 3.429-3.5 2.74-3.5-.143 0-1.493 1.143-3 2.54m-57.176 2.753c.376.986.935 1.541 1.243 1.233.308-.307.001-1.114-.683-1.793-.988-.98-1.102-.865-.56.56M287 464.942c0 1.108 3.924 3.467 4.617 2.774.245-.245-.694-1.191-2.086-2.104-1.392-.912-2.531-1.214-2.531-.67M267 470c.825.533 1.95.969 2.5.969s.325-.436-.5-.969c-.825-.533-1.95-.969-2.5-.969s-.325.436.5.969m53 2.906c0 .602 1.282 1.094 2.849 1.094 1.567 0 6.405.207 10.75.459 7.314.425 7.493.392 2.401-.451-11.554-1.911-16-2.218-16-1.102m436.75-.2c1.237.238 3.263.238 4.5 0 1.237-.239.225-.434-2.25-.434s-3.487.195-2.25.434m-482.75.683c0 .308 1.392 1.279 3.093 2.159 4.072 2.106 3.329 2.611-5.866 3.986-7.498 1.121-7.185 1.158 10.607 1.228 10.083.039 18.172-.089 17.976-.285-.197-.197-3.957-.809-8.357-1.361-5.339-.669-9.57-1.881-12.726-3.645-2.6-1.453-4.727-2.39-4.727-2.082m332 2.731c8.699 1.741 27.003 3.496 28.245 2.708.947-.602.887-.806-.245-.833-.825-.02-7.8-.689-15.5-1.486-15.622-1.618-19.193-1.729-12.5-.389m57.284.86c.291 1.112.234 1.853-.127 1.647-.361-.207-1.557-.015-2.657.428-1.149.462 4.488.834 13.25.875 8.388.038 15.25-.332 15.25-.823 0-1.761-3.638-2.429-12.017-2.206-4.685.124-9.803-.262-11.373-.859-2.612-.993-2.81-.914-2.326.938m-356.677.439c.301.785 1.252 1.697 2.113 2.027 2.6.998 2.506-.068-.159-1.814-1.981-1.298-2.387-1.342-1.954-.213m502.143 2.243c.688.278 1.813.278 2.5 0 .688-.277.125-.504-1.25-.504s-1.937.227-1.25.504M89 721v212l6.5.136c3.575.075 7.85.137 9.5.137 1.65 0 4.125-.062 5.5-.137L113 933V538h41.5c22.825 0 41.493.112 41.485.25-.008.138-.664 2.05-1.456 4.25-2.185 6.065-2.075 6.259 3.274 5.745 18.483-1.776 36.052 12.819 41.67 34.616 1.943 7.538 1.79 7.962-1.367 3.797C232.952 579.86 219.981 572 213.914 572c-1.859 0-1.748.474 1.467 6.25 4.348 7.81 8.209 17.465 6.419 16.05-10.718-8.473-19.399-13.381-23.3-13.174-1.56.083-1.633.203-.333.547 1.286.341 1.564 1.279 1.215 4.095-.618 4.979-2.658 6.899-8.192 7.71-13.891 2.035-22.129 10.18-25.166 24.879-.666 3.221-1.561 5.471-1.989 5-.429-.471-2.187-2.837-3.907-5.257L157 613.7l.014 3.9c.007 2.145 2.671 16.95 5.919 32.9 8.521 41.843 21.448 103.735 25.063 120 1.712 7.7 4.221 19.147 5.576 25.437 6.463 30.006 8.496 32.606 25.428 32.52 12.84-.066 23.368-4.764 28.836-12.869l2.336-3.463-2.114-22.812c-1.162-12.547-2.762-28.888-3.556-36.313-.793-7.425-2.587-25.262-3.985-39.638-1.398-14.376-3.208-31.476-4.021-38-.814-6.524-1.484-12.199-1.488-12.612-.004-.413 25.651-.75 57.011-.75h57.019l-.509 2.25c-.28 1.237-2.767 14.4-5.526 29.25-2.76 14.85-6.793 36.45-8.963 48-12.1 64.401-11.71 58.029-4.011 65.528 9.759 9.506 22.659 13.477 38.875 11.968 21.017-1.955 21.961-2.876 26.649-25.996 8.834-43.559 28.914-127.805 30.945-129.829.371-.369 4.427-.671 9.015-.671 13.123 0 16.844 4.01 17.944 19.34 2.072 28.858 8.198 104.851 12.547 155.66 1.601 18.7 3.174 37.825 3.494 42.5 1.11 16.175 1.609 19.107 3.584 21.082 2.837 2.837 10.004 2.608 13.539-.432l2.732-2.35-1.215-14.4c-.668-7.92-2.775-38.025-4.682-66.9a54379.73 54379.73 0 0 0-5.953-89 22569.526 22569.526 0 0 1-3.557-53c-2.482-38.255-5.447-43.385-25.829-44.705l-8.787-.57 1.291-3.612c.71-1.987 1.311-4.85 1.335-6.363.024-1.513.4-2.75.835-2.75 1.136 0-.431-16.051-2.119-21.716-2.167-7.269-7.456-17.966-12.884-26.056-2.683-4-4.564-7.782-4.179-8.405.391-.632.257-.858-.301-.513-1.746 1.078-16.879-17.577-15.746-19.41.323-.522.047-.826-.613-.675-.659.151-1.408-.296-1.664-.995-.369-1.007 4.056-1.214 21.375-1l21.84.27.263 9.5c.341 12.3 1.07 14.982 1.087 4 .008-4.675.044-9.737.082-11.25L450 538h74.5c40.975 0 74.5.188 74.5.417 0 .229-1.622 5.265-3.605 11.19-7.839 23.427-4.776 46.097 8.122 60.109l4.404 4.784.054-5c.171-15.663 8.708-32.22 19.457-37.731 5.447-2.793 17.589-3.05 22.338-.472 4.035 2.19 9.23 9.172 9.23 12.404 0 3.494-5.109 5.299-15.001 5.299-14.143 0-24.87 8.18-29.133 22.215-2.839 9.348-2.322 13.731 5.633 47.785 10.196 43.643 21.609 104.948 19.899 106.889-.52.59-2.306-4.466-4.906-13.889-2.671-9.68-3.165-9.365-1.074.685.78 3.748 2.389 12.665 3.577 19.815 1.188 7.15 2.838 14.055 3.667 15.344 6.212 9.66 39.096 8.82 50.118-1.281l3.643-3.339-1.29-10.362c-.71-5.699-1.513-11.487-1.786-12.862l-.496-2.5 23.325-.27c28.439-.329 29.345-.509 29.264-5.812-.032-2.155-.682-21.018-1.444-41.918-.762-20.9-1.41-40.025-1.441-42.5l-.055-4.5 45 .328c57.013.415 52.562-1.929 54.453 28.672.612 9.9 1.769 26.55 2.571 37 .803 10.45 2.135 29.125 2.96 41.5 1.296 19.416 4.349 61.915 7.434 103.462 1.034 13.927 2.046 15.538 9.759 15.538 7.815 0 8.323-.703 8.323-11.528 0-10.888-4.056-89.39-6.974-134.972-1.092-17.05-2.69-44.275-3.551-60.5-2.718-51.17-1.942-50.319-46.33-50.82l-28.356-.321 4.634-4.44c5.282-5.061 11.137-13.73 16.155-23.919 9.137-18.551 8.355-38.809-2.283-59.209-1.213-2.326-1.888-4.422-1.5-4.659.388-.236 7.455-.459 15.705-.494 14.645-.063 15.015-.012 15.65 2.149l.651 2.213.099-2.25.1-2.25h54.181l-.293 198.75-.293 198.75 12.232.281 12.231.281-.132-213.531L913.794 509H89v212m636.671-182.337-2.829.485 4.329 2.825c2.381 1.554 7.029 5.354 10.329 8.444 9.563 8.955 24.513 15.319 26.124 11.12 1.214-3.164-5.44-13.843-12.426-19.942-3.122-2.726-3.927-2.921-13.013-3.161-5.327-.141-10.958-.038-12.514.229m-125.1 3.809c-.761 4.059 1.315 8.861 4.589 10.614 4.159 2.225 15.281-1.206 38.84-11.984l4.5-2.058-23.639-.022-23.638-.022-.652 3.472M835.158 562c0 1.375.227 1.938.504 1.25.278-.687.278-1.812 0-2.5-.277-.687-.504-.125-.504 1.25m-390.594 9.707c-.542 1.425-.428 1.54.56.56.684-.679.991-1.486.683-1.793-.308-.308-.867.247-1.243 1.233M584.5 633.045c-17.909 1.223-28.441 4.707-34.258 11.332-3.336 3.8-3.595 5.25-4.753 26.623-.313 5.775-1.22 19.725-2.016 31-2.086 29.567-4.492 67.033-9.407 146.5-1.088 17.6-2.247 36.111-2.574 41.137-.589 9.033-.566 9.16 2.091 11.25 5.634 4.431 15.417 1.192 15.417-5.104 0-2.957 3.325-44.099 6.53-80.783 1.369-15.675 4.467-54.233 6.885-85.686 4.738-61.642 4.658-61.154 10.625-64.678 2.309-1.365 6.019-1.636 22.364-1.636 16.261 0 19.596-.242 19.596-1.42 0-1.162-3.438-18.17-5.525-27.33-.581-2.548-3.352-2.681-24.975-1.205m-304.036 1.931c-12.805 1.816-13.911 2.625-4.964 3.628 10.363 1.161 33.326 1.151 41-.018l6-.914-5.5-1.375c-6.784-1.697-28.383-2.478-36.536-1.321m-120.846 45.619c-.992 8.441-3.345 45.404-5.594 87.905-1.106 20.9-2.453 45.875-2.993 55.5-3.548 63.245-3.48 59.996-1.313 62.162 3.343 3.343 8.942 4.053 11.78 1.495 2.249-2.027 2.459-3.185 3.484-19.157 1.901-29.637 5.018-74.366 6.48-93 3.006-38.307 3.096-34.823-1.463-57-2.262-11-5.099-25.287-6.305-31.749-2.465-13.202-3.13-14.206-4.076-6.156m509.215 153.113c-3.297.505-4.892 3.779-10.808 22.186-3.578 11.132-5.336 14.899-10.415 22.311-12.204 17.813-12.11 17.627-12.11 23.893 0 12.714 8.787 17.634 29.924 16.758 4.717-.196 8.576-.322 8.576-.28 0 .041-1.193 3.416-2.651 7.5-7.094 19.867-1.28 25.924 24.885 25.924 23.444 0 42.766-7.937 42.766-17.566 0-3.836 3.819-14.367 7.228-19.934l3.062-5-.588-15.5c-.44-11.603-1.112-17.187-2.672-22.208-2.53-8.142-3.423-8.838-5.968-4.654l-1.969 3.238-.972-2.557c-2.215-5.827-7.857-8.209-23.621-9.977l-10-1.121-.04-5.611c-.076-10.574-5.21-22.225-6.874-15.596l-.654 2.606-3.043-2.56c-3.026-2.547-14.004-3.392-24.056-1.852m-355.715 8.542c-2.52 7.901-5.04 29.725-5.357 46.396-.083 4.393.427 5.877 3.483 10.131 5.391 7.504 6.395 9.916 8.21 19.723 2.756 14.895 7.618 19.575 23.813 22.92 21.234 4.386 43.883-.805 49.416-11.327 4.987-9.485 2.4-19.05-9.804-36.252-13.973-19.696-16.489-25.443-19.001-43.401-1.6-11.435-.033-10.611-19.954-10.489-19.549.119-21.245.614-22.353 6.52-.867 4.625-2.068 3.796-3.57-2.468-1.387-5.782-3.37-6.494-4.883-1.753m-88.145.076c-2.909 1.45-3.743 4.19-3.873 12.717l-.1 6.544 4.25 1.543c4.517 1.64 6.711 4.576 6.735 9.013.02 3.513-2.202 4.202-7.618 2.363-8.203-2.785-9.265-1.886-3.744 3.17 4.109 3.765 5.65 10.338 3.191 13.613-1.258 1.675-1.628 1.688-5.819.209-6.107-2.154-14.897-2.92-18.305-1.595-3.768 1.466-2.503 3.097 2.401 3.097 7.65 0 15.805 5.601 14.436 9.915-.776 2.446-1.532 2.516-7.527.7-3.018-.914-6.64-1.148-11-.712-6.064.606-6.248.694-2.74 1.312 3.933.693 9.74 4.214 9.74 5.906 0 2.033-5.103 8.381-6.768 8.418-.952.021-7.357.443-14.232.938-6.875.494-12.95.927-13.5.961-1.473.091-1.825 8.481-.538 12.806 1.986 6.671 12.952 9.492 32.604 8.389 24.014-1.347 38.399-8.072 41.459-19.382.707-2.613 1.778-5.387 2.38-6.164 1.615-2.083 9.422-5.304 10.857-4.479.681.392.9.34.486-.117-.414-.456-.011-1.648.896-2.65 2.549-2.817 1.018-42.997-2.157-56.591-.784-3.36-3.996-2.85-5.541.88l-1.296 3.13-1.244-4.211c-1.533-5.194-3.708-7.689-7.777-8.921-5.489-1.661-13.146-2.053-15.656-.802" fill-rule="evenodd"/></svg>